<svg width="71" height="80" viewBox="0 0 71 80" fill="none" xmlns="http://www.w3.org/2000/svg">
<g clip-path="url(#clip0_47_2097)">
<path d="M41.4786 27.3665C42.6794 26.707 42.1595 25.5712 41.7275 24.6039C40.4901 21.7974 39.3845 18.859 37.9275 16.1551C37.9202 16.1404 37.9055 16.1258 37.8909 16.1111C37.9421 16.0818 37.9934 16.0598 38.0446 16.0305C38.5059 15.7667 38.1764 15.1292 37.7005 15.2171C35.1452 15.6861 32.729 16.7046 30.3274 17.6792C27.9551 18.6465 25.6341 19.731 23.335 20.8741C21.0067 22.0319 18.7076 23.2556 16.4452 24.5306C15.5885 25.0143 14.3292 25.4979 13.8459 26.4212C13.348 27.3811 13.824 28.5975 14.1095 29.5428C14.7758 31.7924 15.691 34.1886 17.0016 36.1524C17.5288 36.9364 18.1585 36.8045 18.9419 36.4601C20.2159 35.8886 21.4973 35.317 22.7786 34.7674C27.6256 32.6864 32.502 30.6713 37.4516 28.8467C38.7475 28.3704 40.2632 28.026 41.4786 27.3591V27.3665ZM24.5139 32.2321C22.4637 33.1847 20.4283 34.1739 18.4148 35.1998L18.261 35.2804C18.1805 35.3024 18.1292 35.3243 18.0853 35.3463C18.0047 35.2144 17.9315 35.0386 17.8656 34.9213C17.6093 34.4523 17.3677 33.976 17.1408 33.4924C16.6648 32.4812 16.2621 31.448 15.94 30.3781C15.7862 29.8652 15.6471 29.3523 15.5226 28.832C15.4421 28.4876 15.1272 27.6449 15.2737 27.3005C15.4567 26.8608 16.35 26.5311 16.7234 26.3186C17.214 26.0401 17.7119 25.7617 18.2024 25.4906C20.1866 24.3987 22.1928 23.3582 24.2283 22.369C26.4688 21.2771 28.7386 20.2659 31.0083 19.2547C32.8608 18.4267 34.7645 17.6939 36.5876 16.8072C37.3344 18.9762 38.3595 21.0793 39.2674 23.1897C39.5017 23.7392 39.736 24.2815 39.9703 24.8311C40.0655 25.0509 40.1607 25.2707 40.2485 25.4906L40.3876 25.8203C40.4023 25.8789 40.4096 25.9156 40.4242 25.9595C40.0362 26.1574 39.4944 26.2453 39.121 26.3845C38.5206 26.597 37.9128 26.8096 37.3125 27.0294C32.9926 28.6122 28.6946 30.3195 24.5212 32.254L24.5139 32.2321Z" fill="white"/>
<path d="M33.6663 21.5922C31.1183 21.6435 28.6289 22.8159 26.3811 23.9444C24.0381 25.1241 21.9001 26.6043 19.8427 28.2238C19.623 28.3923 19.8647 28.8027 20.1209 28.7001C20.941 28.3557 21.7537 27.9966 22.5591 27.6229C22.5445 27.6522 22.5591 27.6962 22.5957 27.6742C22.7055 27.6009 22.808 27.5276 22.9179 27.4544C24.2797 26.8168 25.627 26.15 26.9742 25.4612C28.0798 24.897 29.1781 24.3181 30.2983 23.7832C31.4918 23.2116 32.6559 22.6767 33.7542 21.9439C33.9006 21.8413 33.8567 21.5849 33.659 21.5922H33.6663Z" fill="white"/>
<path d="M30.9496 26.3992C30.7373 26.3333 30.5396 26.4212 30.3273 26.4432C30.1076 26.4652 29.8953 26.4798 29.6829 26.5238C29.2656 26.6117 28.8775 26.8242 28.4895 26.9928C27.728 27.3225 26.9958 27.7329 26.2636 28.1139C25.817 28.3411 26.1245 29.0885 26.6078 28.9273C27.3985 28.6708 28.1966 28.4363 28.9727 28.1286C29.3681 27.9747 29.7854 27.8428 30.1442 27.6083C30.3199 27.4984 30.4664 27.3665 30.6201 27.2346C30.7885 27.088 31.0082 27.0074 31.118 26.8022C31.2059 26.641 31.1253 26.4505 30.9569 26.3992H30.9496Z" fill="white"/>
<path d="M70.9342 67.7787C70.7218 67.3684 70.2825 67.0973 69.9311 66.8042C69.5577 66.4891 69.1989 66.1447 68.906 65.7563C68.2763 64.9209 67.8956 63.939 67.6906 62.9205C67.4563 61.7554 67.4782 60.539 67.5954 59.3592C67.6833 58.4872 67.7931 57.6079 67.9176 56.7359C67.9322 56.7286 67.9395 56.7212 67.9468 56.7139C68.2983 56.5161 68.5326 56.0764 68.3129 55.5854C67.0609 52.7569 65.2158 50.1483 63.627 47.4957C61.7013 44.2788 59.8928 40.9813 58.4065 37.53C55.1849 30.0704 52.0145 22.5888 49.3347 14.9167C47.8337 10.6153 46.3108 6.29928 44.9489 1.95395C45.3955 1.51429 45.0148 0.62764 44.2607 0.766866C38.945 1.71214 33.7099 3.42682 28.6431 5.28806C23.6863 7.10533 18.8245 9.20106 14.1093 11.5679C11.737 12.755 9.394 14.0154 7.08762 15.3417C5.0375 16.5214 2.58468 17.6646 1.1862 19.6504C-0.182983 21.6215 -0.124409 24.2595 0.175787 26.5531C0.519914 29.2057 1.40586 31.7557 2.26984 34.2765C4.09298 39.5964 6.19435 44.821 8.2884 50.0457C10.3312 55.1531 12.3593 60.3118 14.7902 65.2434C16.013 67.7274 17.3236 70.1676 18.6561 72.593C19.8057 74.6814 20.8161 76.975 23.0126 78.1475C25.0481 79.2393 27.23 79.5617 29.5145 79.6643C30.1588 79.6936 30.8104 79.7083 31.4621 79.7083C32.758 79.7815 34.0613 79.7522 35.3353 79.569C35.9064 79.5251 36.4775 79.4811 37.0486 79.4225C42.8695 78.8143 48.5659 77.2755 54.0939 75.3776C59.5267 73.5163 64.9815 71.3473 70.0702 68.6727C70.0995 68.6581 70.1141 68.6288 70.1434 68.6141C70.2972 68.6288 70.4582 68.6288 70.6193 68.5921C70.9854 68.5115 71.1026 68.0792 70.9488 67.7861L70.9342 67.7787ZM21.1822 74.5056C19.8642 72.2706 18.7879 69.8891 17.7116 67.5296C13.2965 57.879 9.35007 48.0306 5.44752 38.1602C4.45907 35.6687 3.4633 33.1627 2.67254 30.598C1.94768 28.2458 1.15692 25.4686 1.69141 22.9991C1.93303 21.878 2.3577 20.8668 3.20703 20.0607C4.07833 19.24 5.16197 18.6465 6.18703 18.0309C8.32501 16.7486 10.4923 15.5322 12.6962 14.3671C17.7189 11.7218 22.9028 9.37692 28.2112 7.37646C33.4316 5.4053 38.7766 3.91045 44.1142 2.29836C45.1979 6.16006 46.2888 9.98512 47.5628 13.7955C48.8661 17.6646 50.2499 21.5116 51.6557 25.3513C53.0542 29.1764 54.4893 32.9941 56.0928 36.7386C57.6084 40.2998 59.4755 43.6852 61.3938 47.0413C63.0925 50.0164 64.7985 53.0134 66.6069 55.9225C57.5645 57.9596 48.6684 60.8614 40.0359 64.2321C35.6941 65.9248 31.052 67.8447 27.3545 70.7538C26.0878 71.7504 24.5429 73.3478 23.9938 74.9013C23.7155 75.6853 23.7082 76.6526 24.0523 77.4367C23.9352 77.378 23.8107 77.3341 23.7009 77.2608C22.6099 76.594 21.8411 75.5827 21.1968 74.4983L21.1822 74.5056ZM55.551 73.2525C50.8137 74.9965 45.952 76.4328 40.9731 77.3341C38.9084 77.7078 36.7631 78.0449 34.6178 78.25C31.7769 78.0449 28.8774 78.2647 26.1244 77.4C25.9926 77.3561 25.8608 77.3048 25.7217 77.2608C25.8608 77.3048 25.6192 77.1729 25.6192 77.2022C25.0262 76.6673 25.114 75.5461 25.5533 74.7547C26.432 73.1793 27.7865 71.9482 29.2875 70.9956C33.1168 68.5408 37.3269 66.7309 41.5809 65.1628C45.6518 63.6606 49.774 62.283 53.9109 60.9786C58.0916 59.6596 62.2944 58.4213 66.5044 57.2049C65.8894 59.2566 65.7649 61.4769 66.2116 63.5726C66.4678 64.7817 66.9804 65.9248 67.7345 66.9067C67.9468 67.1779 68.2178 67.4856 68.518 67.7714C64.2127 69.6546 59.966 71.6404 55.5436 73.2672L55.551 73.2525Z" fill="white"/>
<path d="M16.1891 49.3056C14.8638 46.3233 13.5313 43.3482 12.1914 40.3732C10.8515 37.3981 9.5555 34.3938 8.23025 31.4114C6.90499 28.4217 5.36008 25.5639 3.96893 22.6181C3.96161 22.6035 3.93232 22.6181 3.93964 22.6328C5.16239 25.5565 6.20209 28.5389 7.46145 31.448C8.79403 34.5257 10.1413 37.6033 11.4226 40.7029C12.6673 43.7219 13.8974 46.7409 15.1201 49.76C15.6839 51.1522 16.2843 52.5298 16.87 53.9148C17.4704 55.329 17.939 57.0364 18.986 58.1941C19.1618 58.3847 19.5279 58.2381 19.5132 57.9743C19.4254 56.4135 18.5394 54.882 17.9463 53.4604C17.3679 52.0755 16.7968 50.6833 16.1891 49.3056Z" fill="white"/>
<path d="M22.3536 63.4627C22.3536 63.3528 22.3243 63.2502 22.2731 63.1623C22.2218 63.0743 22.1486 63.0011 22.0607 62.9498C21.9143 62.8765 21.7605 62.8472 21.5995 62.8911C21.453 62.9278 21.3139 63.0377 21.2407 63.1696C21.1894 63.2649 21.1602 63.3674 21.1602 63.47C21.1602 63.5799 21.1894 63.6825 21.2407 63.7705C21.3359 63.9024 21.4311 64.0416 21.5336 64.1735C21.6288 64.2981 21.7313 64.408 21.8338 64.5252C21.8704 64.5692 21.9363 64.5985 21.9875 64.6132C22.0607 64.6351 22.1413 64.6278 22.2145 64.5985C22.339 64.5472 22.4268 64.4226 22.4268 64.2834C22.4268 64.1515 22.4268 64.0123 22.4122 63.8731C22.3975 63.7338 22.3756 63.6019 22.3609 63.4627H22.3536Z" fill="white"/>
<path d="M49.2541 65.8442C50.4915 65.4119 51.7069 64.9209 52.959 64.5106C54.211 64.1002 55.4923 63.7485 56.7004 63.2209C56.7956 63.177 56.7224 63.0377 56.6346 63.0597C55.1921 63.3528 53.7937 63.8951 52.3806 64.3347C51.0773 64.7378 49.7593 65.0895 48.456 65.5218C45.703 66.4378 42.9793 67.4563 40.3068 68.5775C37.8101 69.6253 35.3353 70.7538 32.9484 72.0288C30.9788 73.084 28.7676 74.4177 27.8084 76.528C27.7206 76.7259 27.9695 76.8651 28.094 76.6966C29.6608 74.6595 31.5792 73.2965 33.8416 72.1241C36.3457 70.8198 38.9303 69.6986 41.5515 68.6581C44.0922 67.6542 46.6695 66.7455 49.2468 65.8516L49.2541 65.8442Z" fill="white"/>
<path d="M57.7178 62.9351C58.3841 62.9351 59.0723 62.8764 59.724 62.7152C60.0461 62.6346 60.3537 62.5174 60.6539 62.3708C60.9467 62.2316 61.2542 62.0777 61.4959 61.8506C61.5764 61.77 61.4959 61.6527 61.3934 61.6747C61.0932 61.7333 60.8076 61.8652 60.5147 61.9531C60.2072 62.0484 59.8997 62.1363 59.5922 62.2243C58.9772 62.4075 58.3694 62.5467 57.7251 62.598C57.5055 62.62 57.4981 62.9424 57.7251 62.9424L57.7178 62.9351Z" fill="white"/>
<path d="M61.6647 66.8188C57.2276 67.94 52.8711 69.5667 48.5366 71.0249C44.1728 72.4905 39.809 73.956 35.4891 75.5315C35.2694 75.6121 35.3573 75.9565 35.5842 75.8905C40.0359 74.5203 44.451 73.0254 48.8588 71.5379C53.1494 70.087 57.5571 68.7607 61.7306 66.9874C61.8258 66.9434 61.7599 66.7969 61.6647 66.8262V66.8188Z" fill="white"/>
</g>
<defs>
<clipPath id="clip0_47_2097">
<rect width="71" height="79" fill="white" transform="translate(0 0.752197)"/>
</clipPath>
</defs>
</svg>
