<svg width="61" height="41" viewBox="0 0 61 41" fill="none" xmlns="http://www.w3.org/2000/svg">
<g clip-path="url(#clip0_47_2124)">
<path d="M59.3929 36.5179C58.6681 35.4126 57.9432 34.3151 57.2026 33.2177C56.4619 32.128 55.737 31.0227 55.0437 29.9018C54.3503 28.781 53.6648 27.5434 52.7272 26.6016C52.4593 26.3292 52.1363 26.2747 51.8684 26.3603C49.158 24.6012 46.5973 22.6242 43.8396 20.9273C42.8862 20.3436 41.925 19.7754 40.9637 19.2149C40.097 18.6623 39.2382 18.1097 38.3715 17.5648C31.3827 13.206 24.3703 8.87829 17.2319 4.75298C15.6718 3.85008 14.1275 2.85377 12.5202 1.99758C11.8347 0.90787 9.88855 0.752197 8.72245 0.752197C7.15451 0.752197 5.53929 1.1803 4.19196 1.97422C1.77308 3.40641 0.0396771 6.17738 0.00028161 8.97948C-0.00759749 9.77341 0.149985 10.5596 0.457269 11.299C0.701522 11.8983 1.03244 12.2953 1.53671 12.5755C1.53671 12.5755 1.53671 12.5833 1.54459 12.5911C3.51436 14.7549 6.09083 16.4751 8.4388 18.2031C11.5589 20.4992 14.7184 22.7331 17.9568 24.8658C23.22 28.3373 28.6487 31.5675 34.0065 34.8834C35.8975 36.0509 37.7806 37.2262 39.6794 38.3704C40.8771 39.0865 42.0353 39.8649 43.3747 40.293C43.4929 40.4331 43.6584 40.5265 43.8554 40.5265C44.5408 40.5343 45.2184 40.6666 45.9118 40.6977C46.5973 40.7211 47.2828 40.7522 47.9683 40.7522C49.2919 40.7522 50.6077 40.7366 51.9314 40.7288C54.6261 40.7133 57.3207 40.7055 60.0154 40.6432C60.496 40.6277 61.016 40.2774 61.0003 39.7481C60.9609 38.5105 60.0469 37.522 59.3929 36.5179ZM55.091 38.0279C55.1461 37.9267 55.2013 37.8178 55.2722 37.7244C55.3037 37.6777 55.3352 37.631 55.3667 37.5843C55.3667 37.5843 55.414 37.5298 55.4376 37.4986C55.5952 37.3274 55.7607 37.1717 55.9498 37.0316C55.9655 37.0161 56.0049 36.9927 56.0207 36.9849C56.068 36.9538 56.1231 36.9227 56.1704 36.8915C56.2728 36.8293 56.3753 36.7748 56.4777 36.7281C56.7062 36.6191 56.911 36.5257 57.1159 36.4401C57.1474 36.4946 57.1868 36.5413 57.2183 36.5957C57.0529 36.5957 56.9425 36.6424 56.7928 36.6969C56.6668 36.7436 56.5722 36.8059 56.4619 36.8915C56.328 36.9849 56.2019 37.0861 56.0758 37.1873C55.8237 37.3819 55.5637 37.5687 55.3116 37.7633C55.1619 37.88 55.0673 38.1213 55.0594 38.3004C55.0594 38.4716 55.1225 38.6584 55.2328 38.7985C55.1067 38.7985 54.9807 38.7985 54.8546 38.7985C54.8703 38.7285 54.8861 38.6584 54.9097 38.5884C54.9413 38.4716 54.9728 38.3471 55.02 38.2303C55.0358 38.1758 55.0594 38.1213 55.0831 38.0746C55.0831 38.0591 55.0988 38.0435 55.1067 38.0279H55.091ZM57.7462 37.7633C57.7935 37.701 57.8329 37.631 57.8565 37.5531C57.9117 37.6388 57.9747 37.7244 58.0299 37.81C57.9826 37.81 57.9353 37.81 57.888 37.8178C57.8171 37.8333 57.7462 37.8567 57.6832 37.8723C57.6595 37.8723 57.6359 37.8956 57.6123 37.9034C57.6595 37.8567 57.7068 37.81 57.7462 37.7555V37.7633ZM58.6523 38.6818C58.6523 38.6818 58.6996 38.744 58.7153 38.7752H58.5893C58.5893 38.7752 58.6287 38.7129 58.6444 38.6818H58.6523ZM25.0479 10.941C31.8319 15.2453 38.5842 19.6586 45.5572 23.6672C47.2197 24.7724 48.8665 25.8933 50.592 26.9051C49.3786 27.2865 48.3149 28.0493 47.4167 28.9834C47.0937 28.8043 46.7785 28.5708 46.4791 28.384C45.5415 27.7925 44.596 27.2009 43.6584 26.6172C40.7037 24.7647 37.7491 22.9044 34.7944 21.0597C28.2153 16.9655 21.6363 12.8713 15.0336 8.82381C13.4026 7.81972 11.7795 6.65996 10.0461 5.81155C10.0067 5.7882 9.96735 5.79598 9.92795 5.80376C11.1256 4.86973 12.5438 4.26261 14.1433 4.15364C14.2142 4.15364 14.2851 4.13029 14.3402 4.10694C14.7972 4.40271 15.2621 4.70627 15.7191 4.99427C18.8313 6.98687 21.9436 8.97169 25.0637 10.9565L25.0479 10.941ZM44.4227 33.8014C44.0839 33.6068 43.7608 33.3578 43.4456 33.1554C42.4765 32.5327 41.5153 31.9022 40.5461 31.2795C37.5678 29.3492 34.5974 27.4111 31.6112 25.4885C24.9376 21.1842 18.2562 16.8954 11.551 12.6378C10.0225 11.6726 8.50183 10.5518 6.8945 9.69557C7.1939 9.08845 7.5327 8.49689 7.9109 7.93647C8.4388 7.1659 9.06125 6.48094 9.77037 5.90495C9.73885 5.975 9.74673 6.06062 9.8334 6.10733C11.2674 6.82342 12.6147 7.80415 13.9699 8.66035C16.901 10.4973 19.8162 12.3498 22.7551 14.1867C29.3736 18.3198 35.9684 22.4918 42.6577 26.516C44.1311 27.4033 45.6282 28.4774 47.2119 29.2013C46.6682 29.7929 46.1876 30.4467 45.7779 31.0927C45.2342 31.9567 44.7851 32.8674 44.4227 33.8014ZM1.8046 11.8828C1.34761 10.723 1.03244 9.55547 1.17427 8.26339C1.33973 6.70666 2.08824 5.18886 3.21495 4.09137C4.38894 2.94718 5.88597 2.18438 7.54058 2.05206C8.38365 1.98201 9.24247 2.05206 10.0619 2.25444C10.7868 2.44124 11.4565 2.83042 12.1971 2.75259C12.4177 2.87712 12.6305 3.01723 12.8432 3.14955C11.1177 3.33636 9.4552 4.25482 8.25758 5.4535C6.69752 7.01022 5.54717 9.08845 4.91684 11.1822C4.69623 11.9139 4.45985 12.8713 4.52289 13.7197C3.71134 13.1826 2.90767 12.6378 2.19855 11.9917C2.07249 11.8828 1.93066 11.8594 1.8046 11.8828ZM36.5199 34.2373C33.0846 32.0501 29.6493 29.8474 26.2062 27.6679C21.1005 24.43 15.9633 21.2542 10.8971 17.9618C9.19519 16.8565 7.51694 15.7201 5.83082 14.5915C5.8387 14.5292 5.84657 14.4591 5.84657 14.4047C5.86233 13.8442 5.70475 13.3305 5.79142 12.7545C5.87809 12.1474 6.08295 11.5481 6.31144 10.9799C6.43751 10.653 6.57933 10.3338 6.72903 10.0225C7.99757 10.723 9.19519 11.6103 10.4007 12.3887C13.4184 14.3424 16.4203 16.3116 19.438 18.2653C26.1274 22.593 32.7931 26.9441 39.5534 31.155C41.0819 32.1046 42.6499 33.2955 44.3123 34.0427C43.7608 35.5216 43.4141 37.0783 43.2723 38.6584C42.6105 38.1369 41.9092 37.6855 41.1922 37.2262C39.64 36.2221 38.08 35.2258 36.5199 34.2295V34.2373ZM48.0392 38.8919C47.401 38.8997 46.7706 38.9464 46.1324 38.9775C45.6203 39.0087 45.1003 39.0865 44.5881 39.141C44.8639 34.7199 47.0385 29.4737 51.4587 27.9014C51.9236 28.8822 52.609 29.7929 53.2315 30.6724C53.9327 31.6687 54.6261 32.665 55.2879 33.6847C55.6346 34.2217 55.9892 34.751 56.3437 35.2881C55.5401 35.4905 54.7837 35.9575 54.2558 36.5413C53.7909 37.055 53.4206 37.6699 53.3024 38.3548C53.2788 38.5105 53.263 38.6662 53.2551 38.8296C52.8375 38.8296 52.4199 38.8374 52.0023 38.8452C50.6787 38.8608 49.3629 38.8763 48.0392 38.8997V38.8919Z" fill="white"/>
</g>
<defs>
<clipPath id="clip0_47_2124">
<rect width="61" height="40" fill="white" transform="translate(0 0.752197)"/>
</clipPath>
</defs>
</svg>
