<svg width="87" height="46" viewBox="0 0 87 46" fill="none" xmlns="http://www.w3.org/2000/svg">
<g clip-path="url(#clip0_44_2016)">
<path d="M85.1857 33.1284C85.5112 32.803 85.7221 32.3872 85.7161 31.8509C85.698 30.5313 84.4022 29.7058 83.2089 29.6455C82.4676 29.6033 81.7202 29.7962 81.009 29.9769C80.2858 30.1577 79.5565 30.3566 78.8513 30.5916C77.6279 31.0013 76.2959 31.5617 75.3195 32.4475C75.2231 32.4475 75.1266 32.4475 75.0362 32.4475C74.6324 32.4475 74.2407 32.4897 73.8429 32.5439C73.2221 32.6283 72.3723 32.7186 72.0288 33.3272C71.9504 33.4719 71.9022 33.6225 71.872 33.7852C70.5642 33.7852 69.3407 33.6526 68.1534 33.0079C66.9058 32.327 65.7185 31.399 64.6999 30.4048C62.4518 28.2174 61.1138 25.4095 59.9024 22.5653C59.0767 20.625 58.1425 18.8414 56.7683 17.3892C57.0576 17.1542 57.3349 16.9132 57.6242 16.6842C58.5765 15.925 59.5167 15.1356 60.4267 14.3221C61.3308 13.5147 62.2288 12.6892 62.6989 11.5563C62.7592 11.4178 62.723 11.2792 62.6507 11.1647C63.4644 10.2668 64.1997 9.10388 63.6753 7.91682C63.1027 6.62732 61.4212 6.56706 60.2158 6.32603C57.2746 5.74154 54.3395 5.09679 51.3983 4.51229C45.2808 3.2951 39.1574 1.94534 32.9857 1.01738C32.5337 0.87879 32.0636 0.812507 31.5875 0.812507C31.485 0.800456 31.3886 0.782379 31.2861 0.770327C31.1656 0.75225 31.0691 0.788405 30.9908 0.842636C29.8637 0.945073 28.7307 1.33072 27.7422 1.75854C25.241 2.83715 23.0592 4.59063 20.7931 6.07898C15.8268 9.35094 11.1619 12.9844 6.73204 16.9614C5.50856 18.0581 4.30918 19.1909 3.07967 20.2816C1.89837 21.33 0.753241 22.3665 0.0601335 23.8187C-0.0724609 24.0958 -0.000136637 24.4935 0.34943 24.5779C0.668862 24.6562 0.988294 24.7346 1.30773 24.8129C1.05459 24.7948 0.801457 24.7647 0.548322 24.7527C0.222863 24.7346 0.144512 25.2347 0.457917 25.3191C4.5141 26.4157 8.72096 26.9641 12.8555 27.7173C13.193 27.7896 13.5305 27.8679 13.868 27.9403C14.4948 29.5792 15.1337 31.2182 15.7786 32.8512C16.5259 34.7373 17.2974 36.6233 18.0448 38.5093C18.5209 39.7205 18.9729 40.9618 19.5756 42.1187C20.2085 43.3299 21.0342 44.041 22.2817 44.3362C22.2335 44.4929 22.2817 44.6978 22.4746 44.746C27.2239 46.0716 32.1781 46.0174 36.9877 45.0171C41.6767 44.0409 46.426 42.2995 50.452 39.6723C52.4892 38.3466 54.5142 36.7498 55.346 34.3938C55.4062 34.2251 55.1772 34.0985 55.0567 34.219C53.5138 35.7194 51.9708 37.2259 50.1446 38.3768C49.3792 38.8588 48.5776 39.2927 47.764 39.7085C50.006 38.4852 52.1577 36.9788 53.7428 34.9783C54.7975 33.6466 55.5087 32.0679 55.3399 30.3385C55.1772 28.6272 54.5625 26.8978 54.0863 25.2528C53.6524 23.7524 53.1823 22.264 52.6941 20.7817C53.6222 19.9923 54.5564 19.209 55.4906 18.4317C56.027 18.9559 56.5032 19.5404 56.907 20.2032C57.6905 21.4988 58.2389 22.9208 58.8296 24.3067C60.0591 27.175 61.6442 29.989 64.0369 32.0498C66.2187 33.9298 69.0394 35.9424 72.0046 35.0265C72.1794 35.4001 72.4506 35.7255 72.8123 35.9062C73.4089 36.2075 74.1141 36.3039 74.765 36.4184C75.3255 36.5209 75.8921 36.6052 76.4586 36.6896C77.1698 37.6597 78.2607 38.3346 79.3335 38.8408C79.9724 39.142 80.6233 39.4072 81.2802 39.6663C81.9553 39.9314 82.6604 40.1785 83.4017 40.1242C84.6614 40.0338 85.6137 38.9854 85.5353 37.714C85.5172 37.3645 85.4027 37.0451 85.234 36.7619C85.252 36.7619 85.2701 36.7559 85.2882 36.7498C86.0416 36.4907 86.7588 35.9002 86.9396 35.0928C87.2349 33.743 86.2827 33.3031 85.1797 33.1404L85.1857 33.1284ZM3.40513 21.3662C4.42972 20.3961 5.4965 19.4741 6.55726 18.5462C8.65466 16.7083 10.7581 14.8705 12.9097 13.0989C15.0132 11.3635 17.1226 9.59799 19.3044 7.959C21.5826 6.24167 23.9693 4.72319 26.4344 3.28907C27.5011 2.66843 28.574 2.30688 29.7854 2.05983C30.2193 1.96944 30.6894 1.87906 31.1716 1.83688C36.6984 2.98176 42.2432 4.04229 47.77 5.19922C50.663 5.80782 53.5439 6.45257 56.4308 7.09732C57.7266 7.38656 59.0224 7.65169 60.3062 7.97105C60.7823 8.09156 61.4996 8.12772 61.9214 8.3808C62.5302 8.74837 61.7889 9.65825 61.4815 10.0017C60.3243 11.3274 58.9381 12.5084 57.6362 13.6894C56.7924 14.4547 55.9306 15.2079 55.0627 15.9491C54.8578 15.8105 54.6589 15.6659 54.4419 15.5393C51.6876 13.9365 48.427 13.1592 45.3532 12.4421C43.4125 11.9902 41.4537 11.6226 39.4768 11.3394C37.7591 11.0924 35.8606 10.7429 34.1068 10.9839C33.8657 10.2186 33.6608 9.44132 33.3775 8.69414C33.0339 7.77823 32.4312 6.81411 31.4006 6.59116C30.4182 6.37424 29.4539 6.84424 28.9235 7.68784C28.3449 8.60978 28.3449 9.76069 28.5559 10.7911C28.7789 11.9058 29.2731 12.9362 30.135 13.6834C30.0325 13.8883 30.1169 14.1715 30.376 14.2679C31.25 14.5933 32.2384 14.3523 33.04 13.9486C33.4558 13.7437 33.8355 13.4665 34.1248 13.105C34.2574 12.9362 34.3237 12.7494 34.4141 12.5626C34.4804 12.4301 34.5407 12.2975 34.5949 12.1589C36.0113 12.5144 37.5422 12.5988 38.9645 12.8278C40.7184 13.111 42.4662 13.4484 44.196 13.8401C47.3481 14.5511 50.7775 15.2863 53.5921 16.9373C53.6524 16.9735 53.7066 17.0156 53.7669 17.0518C51.1331 19.2512 48.4631 21.4144 45.763 23.5294C44.2984 24.6743 42.8158 25.7891 41.3332 26.9099C39.9891 27.9222 38.7114 28.6272 37.066 29.0309C35.1976 29.4828 33.3654 29.2237 31.479 29.0309C29.6468 28.8381 27.8025 28.6573 25.9643 28.5067C22.9749 28.2596 20.0035 27.7836 17.0563 27.2292C16.5681 27.1268 16.0739 27.0183 15.5857 26.9219C15.0373 26.8134 14.4828 26.711 13.9283 26.6146C13.6812 26.5664 13.4341 26.5182 13.193 26.464C9.19709 25.6505 5.23734 24.825 1.3017 23.7524C1.88632 22.8666 2.6397 22.1013 3.41116 21.3722L3.40513 21.3662ZM33.5462 11.8215V11.8396C33.4739 11.8998 33.3895 11.954 33.3112 12.0143C32.9918 12.0926 32.6603 12.1589 32.3348 12.1951C31.7442 12.2614 31.1656 12.2734 30.5749 12.3156C30.4905 12.3216 30.4182 12.3457 30.3459 12.3758C30.0325 11.7431 29.7733 11.0803 29.6648 10.3934C29.5262 9.51363 29.5624 8.30849 30.3459 7.724C31.2921 7.01899 32.1118 7.95297 32.4855 8.8026C32.7266 9.35094 32.8953 9.94146 33.0882 10.5079C33.1726 10.761 33.269 11.014 33.3594 11.2611C33.275 11.4479 33.3474 11.6949 33.5402 11.8155L33.5462 11.8215ZM48.8549 22.6617C46.5224 24.7044 44.1659 26.7291 41.6526 28.5368C40.863 29.1092 40.0253 29.6516 39.1032 29.989C38.5487 30.1939 38.0002 30.2782 37.4457 30.3084C40.2483 29.3924 42.5627 27.3136 44.8951 25.5962C46.2211 24.6201 47.535 23.6439 48.8488 22.6617H48.8549ZM53.5017 32.809C52.1999 35.4784 49.4817 37.0511 46.9503 38.3466C44.1779 39.7687 41.2548 40.8292 38.2473 41.6367C35.2459 42.4381 32.1661 42.9021 29.0621 43.0527C27.5614 43.125 26.0607 43.113 24.56 43.0347C23.8488 42.9985 23.1014 42.9985 22.4023 42.8418C21.5947 42.6611 21.1788 42.1248 20.781 41.4318C19.2743 38.7986 18.2256 35.846 17.1166 33.032C16.4898 31.4352 15.875 29.8323 15.2603 28.2295C16.0076 28.3862 16.761 28.5308 17.5084 28.6694C20.9859 29.4889 24.4274 30.4289 27.9652 30.9591C30.2736 31.3086 32.5759 31.5075 34.9083 31.5075C36.9997 31.5075 38.9706 31.2604 40.7666 30.1336C44.5516 27.7715 47.9267 24.8189 51.3199 21.9386C51.5731 22.6858 51.8202 23.427 52.0733 24.1742C52.5193 25.4938 52.9593 26.8195 53.351 28.1572C53.8091 29.7299 54.2491 31.2423 53.4957 32.803L53.5017 32.809ZM73.1136 33.984C73.1136 33.984 73.1136 33.984 73.1257 33.9599C73.1739 33.9298 73.1438 33.9599 73.1076 33.9901V33.978L73.1136 33.984ZM75.5063 35.3338C74.8795 35.2253 74.2467 35.1169 73.644 34.912C73.5958 34.8939 73.5415 34.8758 73.4933 34.8578H73.4813C73.4813 34.8578 73.427 34.8216 73.3969 34.8035C73.3547 34.7614 73.3125 34.7192 73.2763 34.677C73.2643 34.6649 73.2643 34.6649 73.2583 34.6649C73.2583 34.6529 73.2583 34.6529 73.2402 34.6348C73.2221 34.5987 73.198 34.5685 73.1799 34.5324C73.1799 34.5264 73.1377 34.4299 73.1317 34.4239C73.1257 34.3998 73.1136 34.3757 73.1076 34.3456C73.0955 34.3094 73.0895 34.2672 73.0835 34.2311C73.1076 34.3637 73.0835 34.1889 73.0835 34.1648C73.0835 34.1407 73.0835 34.1226 73.0835 34.0985C73.0835 34.0985 73.1016 34.0262 73.1076 34.0021C73.1317 33.9901 73.1618 33.978 73.1859 33.9599C73.1859 33.9599 73.192 33.9599 73.198 33.9539C73.2221 33.9419 73.2522 33.9358 73.2763 33.9298C73.5656 33.8394 73.867 33.7792 74.1623 33.7249C74.548 33.6586 74.9519 33.5863 75.3376 33.4839C75.3496 33.5261 75.3617 33.5622 75.3737 33.6044C75.4822 33.8997 75.5907 34.201 75.6932 34.4962C75.8017 34.8035 75.9101 35.1048 76.0186 35.4121C75.8439 35.382 75.6751 35.3579 75.5003 35.3278L75.5063 35.3338ZM85.9632 34.912C85.7523 35.7857 84.8723 35.8641 84.1009 35.7737C83.8297 35.6712 83.5343 35.617 83.233 35.6291C82.6665 35.6471 82.4495 36.551 83.0703 36.6775C83.2631 36.7137 83.468 36.7559 83.673 36.786C84.2757 37.0089 84.6554 37.6657 84.2455 38.2984C83.685 39.1661 82.6122 38.7022 81.8407 38.4129C81.015 38.1056 80.1954 37.7863 79.4179 37.3705C78.6826 36.9728 78.0739 36.4907 77.4772 35.9303C77.2723 35.3519 77.0673 34.7794 76.8564 34.207C76.7539 33.9178 76.6515 33.6345 76.543 33.3453C76.4948 33.2067 76.4345 33.0501 76.3501 32.9115C77.0071 32.5198 77.664 32.1582 78.4053 31.8931C79.3998 31.5316 80.4244 31.2423 81.455 30.9893C82.4013 30.7543 83.7332 30.4228 84.4203 31.3508C85.1616 32.3511 83.7875 32.815 83.0522 33.0199C82.4555 33.1886 82.5519 34.0744 83.1787 34.1045C83.7694 34.1287 84.36 34.1046 84.9447 34.1528C85.463 34.1949 86.132 34.2371 85.9632 34.924V34.912Z" fill="white"/>
<path d="M7.88981 22.2219C7.6427 22.1616 7.38957 22.1315 7.13643 22.1134C6.93151 22.0953 6.7266 22.0772 6.52168 22.1013C6.37703 22.1194 6.22635 22.1315 6.0817 22.1495C6.00335 22.1616 5.91898 22.1736 5.85871 22.2158C5.81049 22.2399 5.81049 22.246 5.87076 22.2158C5.84062 22.2279 5.81049 22.2339 5.78638 22.246C5.6116 22.3062 5.479 22.4267 5.44887 22.6196C5.42476 22.7822 5.49708 23.0052 5.65981 23.0835C5.78638 23.1438 5.88884 23.2221 6.02143 23.2643C6.12389 23.3005 6.23238 23.3246 6.33484 23.3547C6.53373 23.4149 6.73262 23.439 6.93151 23.4812C7.18465 23.5294 7.42573 23.5776 7.68489 23.6017C7.84159 23.6198 7.98022 23.6258 8.14295 23.5837C8.34184 23.5294 8.48648 23.439 8.58894 23.2824C8.66127 23.198 8.6914 23.0956 8.68538 22.9871V23.0052C8.70948 22.5533 8.28157 22.3122 7.90186 22.2219H7.88981Z" fill="white"/>
<path d="M11.795 23.2642L11.56 23.0955C11.4816 23.0413 11.3973 22.993 11.3129 22.9448C11.1622 22.8605 10.9633 22.8424 10.8126 22.9328C10.7042 22.9991 10.6198 23.0955 10.5776 23.222C10.5535 23.2883 10.5535 23.3546 10.5655 23.4209C10.5655 23.4872 10.5836 23.5474 10.6198 23.6077C10.662 23.68 10.7222 23.7402 10.7946 23.7884C10.8729 23.8366 10.9513 23.8607 11.0417 23.8607C11.1381 23.8668 11.2345 23.8788 11.331 23.8728H11.6203C11.6926 23.8607 11.7589 23.8427 11.8192 23.8005C11.8734 23.7583 11.9216 23.7041 11.9397 23.6318C11.9517 23.5775 11.9578 23.5173 11.9397 23.457C11.9216 23.3727 11.8613 23.3064 11.795 23.2582V23.2642Z" fill="white"/>
<path d="M51.2292 31.429C51.199 31.429 51.1629 31.4351 51.1327 31.4471C51.0544 31.4652 50.9881 31.5194 50.9278 31.5676C50.9097 31.5857 50.8917 31.5978 50.8676 31.6158C50.8977 31.5917 50.9098 31.5797 50.8676 31.6038C50.8073 31.6339 50.7591 31.6821 50.7169 31.7303C50.6024 31.8629 50.4818 31.9834 50.3673 32.116C50.1383 32.3751 49.8852 32.6221 49.62 32.8451C49.4994 32.9475 49.4994 33.1343 49.5898 33.2548C49.6802 33.3753 49.855 33.4235 49.9876 33.3452C50.307 33.1464 50.6144 32.9174 50.8977 32.6764C51.0303 32.5619 51.1448 32.4353 51.2593 32.2967C51.3196 32.2244 51.3859 32.1521 51.416 32.0557V32.0316L51.4281 32.0196V32.0075C51.4642 31.9533 51.4944 31.899 51.5125 31.8388C51.5305 31.7725 51.5245 31.7183 51.5125 31.652C51.4944 31.4953 51.3919 31.4049 51.2292 31.429Z" fill="white"/>
<path d="M50.3433 29.7961C50.3976 29.7298 50.4458 29.6696 50.5 29.6033C50.5543 29.531 50.5904 29.4526 50.6206 29.3622C50.6447 29.296 50.6688 29.2357 50.6869 29.1694C50.7291 29.0067 50.7049 28.8501 50.6628 28.6934C50.5844 28.3861 50.1987 28.1933 49.9154 28.374C49.8792 28.3981 49.8371 28.4162 49.8009 28.4403C49.7165 28.4885 49.6562 28.5548 49.596 28.6271C49.5357 28.6994 49.4634 28.7717 49.4152 28.844C49.3911 28.8802 49.373 28.9163 49.3489 28.9525C49.3187 28.9947 49.2886 29.0369 49.2585 29.079C49.156 29.1996 49.0415 29.314 48.9149 29.4105C48.8727 29.4406 48.8366 29.4647 48.7884 29.4948C48.6558 29.5731 48.5473 29.6997 48.5051 29.8503C48.4629 29.9949 48.4749 30.1878 48.5593 30.3143C48.6377 30.4469 48.7582 30.5614 48.9149 30.5975C49.0777 30.6397 49.2223 30.6156 49.379 30.5433C49.6864 30.4047 49.9696 30.1998 50.2047 29.9588C50.2529 29.9046 50.3011 29.8503 50.3494 29.7961H50.3433Z" fill="white"/>
</g>
<defs>
<clipPath id="clip0_44_2016">
<rect width="87" height="45" fill="white" transform="translate(0 0.752197)"/>
</clipPath>
</defs>
</svg>
