<svg width="64" height="65" viewBox="0 0 64 65" fill="none" xmlns="http://www.w3.org/2000/svg">
<g clip-path="url(#clip0_44_2048)">
<path d="M32.5022 34.9227C33.5648 35.5586 34.932 35.7922 36.1567 35.7079C37.4073 35.6235 38.5348 34.9941 39.3382 34.0337C40.8674 32.2103 41.1072 29.4785 39.3123 27.733C38.3404 26.7856 36.9796 26.4547 35.6578 26.6299C35.3079 26.6753 34.9644 26.7597 34.6275 26.87C34.3424 26.8959 34.0638 26.9543 33.7916 27.0517C32.7354 27.4215 31.8347 28.2521 31.2969 29.2254C30.2796 31.0748 30.5712 33.7677 32.4957 34.9162L32.5022 34.9227Z" fill="white"/>
<path d="M62.4514 22.931C61.0842 21.3283 59.1014 20.4523 57.0992 19.9526C54.6952 19.3557 52.194 19.0053 49.6799 18.8236C50.3408 16.4032 50.937 13.918 50.6519 11.3938C50.3862 9.0383 49.0643 6.63741 46.8418 5.60568C46.8094 5.5927 46.7835 5.57972 46.7511 5.56674C46.3817 5.34612 45.993 5.15145 45.5912 4.98923C45.7014 4.38576 45.656 3.75634 45.4227 3.17234C44.7164 1.3814 42.6365 0.330201 40.7833 0.907713C38.8329 1.51767 37.1352 3.21776 37.4073 5.37856C37.4397 5.61865 37.4916 5.85225 37.5629 6.07288C35.7745 7.2863 34.2517 9.00586 33.1372 10.8033C32.3985 11.9908 31.7376 13.2366 31.1156 14.4955C29.7419 13.4183 28.3293 12.3866 26.8649 11.4457C23.0548 8.98639 17.8516 6.1183 13.3223 8.38941C11.2812 9.41466 10.0371 11.3678 9.70663 13.5935C9.34377 16.0723 10.1278 18.4537 11.1516 20.6794C11.8708 22.2497 12.6679 23.7876 13.5297 25.293C13.3158 25.3838 13.102 25.4682 12.8882 25.5526C10.0047 26.7725 6.80373 28.531 5.04773 31.1784C4.53583 30.9643 3.98506 30.8734 3.41484 30.9383C1.3867 31.1719 -0.136033 33.0018 0.0129999 35.0393C0.0907563 36.1035 0.401782 37.1612 1.07567 38.0047C1.67828 38.7575 2.59192 39.1922 3.53796 39.296C4.18593 39.3609 4.8015 39.2571 5.36523 39.017C6.51862 40.3602 8.13206 41.3984 9.67423 41.8981C11.7866 42.5859 14.0545 42.6573 16.2511 42.6508C17.5471 42.6508 18.843 42.6184 20.1325 42.5664C19.5363 45.0387 19.0504 47.5434 18.7199 50.0676C18.37 52.7345 17.9942 55.6416 18.4996 58.3085C18.9272 60.5537 20.1584 62.8572 22.1865 64.0317C24.3572 65.2906 26.7094 64.7585 28.6986 63.4153C32.8262 60.6315 35.5671 56.2321 37.6989 51.8261C37.8933 51.4303 38.0683 51.0215 38.2562 50.6192C38.7098 50.9176 39.1633 51.2291 39.6234 51.5211C43.2844 53.8506 47.4962 56.5046 51.9932 56.1412C52.8938 57.6466 54.7276 58.3215 56.4771 58.023C57.5851 57.8348 58.745 57.1989 59.2245 56.1412C59.4707 55.6026 59.5161 55.09 59.4254 54.5255C59.4707 54.4022 59.5096 54.2854 59.529 54.1621C59.6716 53.2472 59.529 52.3063 58.9912 51.5341C58.8422 51.32 58.6672 51.1318 58.4793 50.9566C58.9394 49.1786 58.8876 47.206 58.4081 45.6162C57.6823 43.2153 56.2438 41.1194 54.7859 39.1079C54.2222 38.3292 53.639 37.57 53.0558 36.8108C53.3604 36.7005 53.6584 36.5967 53.9565 36.4799C57.7536 35.0199 62.7041 32.8655 63.8056 28.492C64.3175 26.474 63.7797 24.4884 62.4449 22.9181L62.4514 22.931ZM38.2238 7.27981C39.0208 8.26612 40.2779 8.86959 41.5932 8.90852C42.7855 8.94746 44.0037 8.53217 44.7164 7.53937C44.8914 7.29279 45.008 7.02026 45.0793 6.74123C45.4746 7.00728 45.8893 7.23439 46.2716 7.5199C47.0556 8.11039 47.7165 8.82417 48.1507 9.71315C49.2134 11.8804 48.8635 14.3657 48.3386 16.6303C48.1766 17.3246 47.9952 18.0189 47.8202 18.7133C46.0642 18.6419 44.3082 18.6419 42.5846 18.6873C40.5694 18.7457 38.5607 18.8949 36.5585 19.1285C35.1718 17.8632 33.7528 16.6173 32.2949 15.4299C33.7593 12.3476 35.4505 9.17457 38.2238 7.27332V7.27981ZM23.0289 37.9853C23.8453 38.8483 24.6812 39.6983 25.5365 40.5224C24.435 40.6263 23.3334 40.7171 22.2254 40.795C22.4781 39.8541 22.7503 38.9197 23.0289 37.9918V37.9853ZM15.5967 25.559C18.6875 24.3781 21.8755 23.4242 25.0635 22.6196C25.8929 22.4119 26.7223 22.2173 27.5582 22.0356C26.9491 23.3723 26.353 24.709 25.7828 26.0652C24.5322 29.0111 23.3658 31.996 22.3356 35.0263C19.8279 32.0674 17.5665 28.9073 15.5967 25.559ZM23.5278 36.376C25.1478 31.3536 27.1759 26.461 29.3725 21.6657C31.5108 21.2504 33.6686 20.913 35.8393 20.6794C38.8847 23.5085 41.82 26.448 44.6387 29.5108C44.4054 30.2051 44.1722 30.9059 43.9324 31.5937C43.1484 33.8129 42.3384 36.0191 41.496 38.2189C37.3231 39.0365 33.1243 39.7048 28.893 40.1785C28.3682 40.2369 27.8433 40.2953 27.3185 40.3472C26.0096 39.0689 24.7525 37.7452 23.5343 36.3825L23.5278 36.376ZM44.2369 35.9867C44.8266 34.3255 45.3968 32.6514 45.9606 30.9708C47.4509 32.6384 48.9088 34.345 50.3019 36.097C48.0924 36.7719 45.831 37.3169 43.5695 37.7906C43.7899 37.1871 44.0166 36.5902 44.2305 35.9867H44.2369ZM45.2543 27.6485C43.2067 25.4747 41.0878 23.3593 38.9106 21.3153C38.6061 21.0298 38.3015 20.7443 37.997 20.4653C41.1332 20.2122 44.2823 20.1603 47.4185 20.3355C46.7705 22.7948 46.0383 25.2346 45.2543 27.655V27.6485ZM31.1998 17.7464C31.3294 17.4674 31.4655 17.1884 31.5951 16.9028C32.567 17.714 33.526 18.551 34.4656 19.4011C32.9882 19.6152 31.5173 19.8683 30.0529 20.1668C30.4287 19.3557 30.811 18.5445 31.1998 17.7399V17.7464ZM12.0328 18.4602C11.2877 16.3967 10.9378 14.0867 11.8838 12.0232C12.791 10.0506 14.683 9.06426 16.8084 9.02533C19.1929 8.9799 21.4608 10.109 23.5019 11.2316C25.9577 12.5812 28.2386 14.1905 30.4157 15.936C30.0334 16.7341 29.6576 17.5388 29.2818 18.3304C28.9319 19.0701 28.5885 19.8164 28.2451 20.5561C23.7546 21.5749 19.3484 22.97 15.0653 24.6636C15.0394 24.6181 15.007 24.5662 14.9811 24.5208C13.886 22.5741 12.7974 20.5626 12.0393 18.4602H12.0328ZM13.4389 40.8274C11.2423 40.6587 8.87723 40.1331 7.24435 38.5433C7.07587 38.3811 6.92036 38.2059 6.77781 38.0307C7.26378 37.5246 7.64609 36.9081 7.87288 36.2398C8.26166 35.1042 8.1839 33.8389 7.42578 32.885C7.14715 32.5346 6.77781 32.301 6.36311 32.1323C6.27239 32.0155 6.17519 31.9052 6.06504 31.8078C7.55537 29.5562 9.98526 27.9534 12.5059 26.8374C13.0178 26.6102 13.5297 26.3896 14.048 26.1755C16.2706 29.9131 18.8948 33.4106 21.8042 36.6551C21.3571 38.0567 20.9424 39.4647 20.5666 40.8858C18.1821 41.0026 15.7975 41.0091 13.4519 40.8339L13.4389 40.8274ZM31.7311 58.5616C30.3704 60.3395 28.6079 62.1824 26.5344 63.1103C24.2924 64.1226 22.0505 63.0194 20.8258 61.0209C19.5623 58.9574 19.7696 56.0633 19.9575 53.7533C20.1584 51.2291 20.4953 48.7114 20.9683 46.2262C21.2081 44.9738 21.4802 43.7344 21.7783 42.5015C22.5688 42.4561 23.3594 42.4107 24.1499 42.3523C25.1607 42.2744 26.1715 42.1771 27.1824 42.0733C27.5258 42.3848 27.8627 42.6962 28.2127 43.0012C30.9147 45.3826 33.7658 47.5824 36.7335 49.6199C35.3403 52.754 33.8241 55.8427 31.7376 58.5681L31.7311 58.5616ZM38.172 46.3235C37.8415 47.0827 37.511 47.8419 37.1806 48.6011C35.2885 47.2449 33.4482 45.8174 31.6793 44.3184C30.7462 43.5268 29.8326 42.7157 28.9319 41.8851C32.4504 41.4828 35.9559 40.9377 39.4355 40.2694C39.8826 40.185 40.3362 40.0942 40.7833 40.0033C39.9474 42.1252 39.0856 44.2406 38.172 46.3235ZM55.2848 42.9688C56.4901 44.9933 57.462 47.3877 56.989 49.7821C56.9696 49.8859 56.9372 49.9832 56.9112 50.0871C55.9782 49.8145 54.9544 49.8729 54.0667 50.3596C52.4273 51.2486 51.1637 53.1044 51.5396 54.9862C50.7102 55.0251 49.8808 54.9797 49.0514 54.8499C46.6474 54.4801 44.4767 53.3056 42.4226 52.0597C41.1591 51.3005 39.928 50.4829 38.7098 49.6523C40.2325 46.3495 41.6386 42.9752 42.9216 39.5621C45.7597 38.9716 48.5848 38.2838 51.3452 37.3948C52.7513 39.1857 54.1315 41.0156 55.2913 42.9623L55.2848 42.9688ZM60.8898 30.7891C59.4383 32.3399 57.4426 33.3133 55.5311 34.1698C54.3906 34.6759 53.2308 35.1237 52.0579 35.5325C51.3452 34.6305 50.6259 33.7286 49.8808 32.8461C48.8116 31.5678 47.7036 30.3219 46.5761 29.089C47.5027 26.2274 48.384 23.3528 49.2004 20.4653C49.9391 20.5237 50.6713 20.595 51.41 20.6794C55.071 21.1141 60.1835 21.5749 62.0496 25.3125C62.9892 27.2007 62.2635 29.3226 60.8898 30.7891Z" fill="white"/>
</g>
<defs>
<clipPath id="clip0_44_2048">
<rect width="64" height="64" fill="white" transform="translate(0 0.752197)"/>
</clipPath>
</defs>
</svg>
